<svg xmlns="http://www.w3.org/2000/svg" version="1.1" xmlns:xlink="http://www.w3.org/1999/xlink" xmlns:svgjs="http://svgjs.com/svgjs" width="1440" height="560" preserveAspectRatio="none" viewBox="0 0 1440 560"><g mask="url(&quot;#SvgjsMask1758&quot;)" fill="none"><path d="M 0,172 C 41.2,161.4 123.6,112.8 206,119 C 288.4,125.2 329.6,208 412,203 C 494.4,198 535.6,82.6 618,94 C 700.4,105.4 741.6,277.8 824,260 C 906.4,242.2 947.6,3.8 1030,5 C 1112.4,6.2 1154,262.8 1236,266 C 1318,269.2 1399.2,70 1440,21L1440 560L0 560z" fill="rgba(30, 39, 125, 1)"></path><path d="M 0,504 C 41.2,476.2 123.6,356.2 206,365 C 288.4,373.8 329.6,564 412,548 C 494.4,532 535.6,305.8 618,285 C 700.4,264.2 741.6,438.6 824,444 C 906.4,449.4 947.6,309.4 1030,312 C 1112.4,314.6 1154,442.8 1236,457 C 1318,471.2 1399.2,397.8 1440,383L1440 560L0 560z" fill="rgba(11, 15, 45, 1)"></path></g><defs><mask id="SvgjsMask1758"><rect width="1440" height="560" fill="#ffffff"></rect></mask></defs></svg>