<svg xmlns="http://www.w3.org/2000/svg" version="1.1" xmlns:xlink="http://www.w3.org/1999/xlink" xmlns:svgjs="http://svgjs.com/svgjs" width="1440" height="560" preserveAspectRatio="none" viewBox="0 0 1440 560"><g mask="url(&quot;#SvgjsMask1745&quot;)" fill="none"><path d="M 0,253 C 36,224.6 108,107.6 180,111 C 252,114.4 288,284.2 360,270 C 432,255.8 468,40.2 540,40 C 612,39.8 648,262.6 720,269 C 792,275.4 828,94.2 900,72 C 972,49.8 1008,156 1080,158 C 1152,160 1188,63.8 1260,82 C 1332,100.2 1404,215.6 1440,249L1440 560L0 560z" fill="rgba(108, 99, 255, 1)"></path><path d="M 0,314 C 32,351.2 96,496 160,500 C 224,504 256,323.8 320,334 C 384,344.2 416,534.6 480,551 C 544,567.4 576,419.2 640,416 C 704,412.8 736,555.4 800,535 C 864,514.6 896,329.4 960,314 C 1024,298.6 1056,455.4 1120,458 C 1184,460.6 1216,313.6 1280,327 C 1344,340.4 1408,485.4 1440,525L1440 560L0 560z" fill="rgba(83, 78, 175, 1)"></path></g><defs><mask id="SvgjsMask1745"><rect width="1440" height="560" fill="#ffffff"></rect></mask></defs></svg>